<svg xmlns="http://www.w3.org/2000/svg" width="600" height="600" viewBox="0 0 600 600"><rect width="600" height="600"/><path d="M573.78,591.68a68.8,68.8,0,0,1-28.71,6.65q-24.15,0-38.7-12.9t-17.9-35.37q-30.8,27.47-54.93,38.7A115.32,115.32,0,0,1,384.43,600q-30.8,0-52.85-18.31t-22.06-51.6q0-26.64,14.57-46.2t38.7-33.29q24.13-13.74,56.18-23.31a542.74,542.74,0,0,1,67.84-15.39A329.53,329.53,0,0,0,484.72,372q-2.09-16.65-7.9-27.05a35.53,35.53,0,0,0-17.06-15.4q-11.25-5-28.72-5a55.18,55.18,0,0,0-15.81,2.5,52.78,52.78,0,0,0-15.4,7.49A41.51,41.51,0,0,0,388.18,347a32.77,32.77,0,0,0-4.58,17.48q0,12.48-8.32,20.8a27.25,27.25,0,0,1-20,8.33q-12.48,0-20.81-8.33t-8.32-20.8A45.31,45.31,0,0,1,335.33,337a79.58,79.58,0,0,1,23.72-21.22,118.39,118.39,0,0,1,33.7-13.32,168.29,168.29,0,0,1,39.12-4.58q60.75,0,87.4,26.63t26.63,86.57V536.74q0,32.46,19.14,32.46a22.83,22.83,0,0,0,12.9-4.16,68,68,0,0,0,10.41-8.32L600,572.53A83,83,0,0,1,573.78,591.68Zm-87-154q-59.94,14.16-87.4,34.54T372,520.1q0,20,11.65,31.21a38.25,38.25,0,0,0,27.47,11.24q13.29,0,30-7.08t45.78-32.88Z" fill="#fff"/><path d="M80,507.2H63.2V130.4Q63.2,100,60.8,82T51.6,53.6A31.63,31.63,0,0,0,32.4,40Q20,36.82,0,36.8V20L120,0V260.8A133.21,133.21,0,0,1,162.8,226q24.39-12.39,54.8-12.4a127.79,127.79,0,0,1,54,11.6,142,142,0,0,1,73.6,77.6,156.87,156.87,0,0,1,0,114.4A148.8,148.8,0,0,1,315.6,464a140.08,140.08,0,0,1-44,31.6,127.79,127.79,0,0,1-54,11.6q-32,0-58.4-14.4a129,129,0,0,1-44-39.2Zm40-96q11.19,28.8,32,46.4t48.8,17.6q23.19,0,40.4-9.2a82.21,82.21,0,0,0,28.4-24.8,111.59,111.59,0,0,0,16.8-36.4,182,182,0,0,0,0-89.6,111.78,111.78,0,0,0-16.8-36.4,78.63,78.63,0,0,0-28.4-24.4q-17.22-8.79-40.4-8.8-28,0-48.8,17.6t-32,45.6Z" fill="#fff"/><path d="M372,520.1q0,20,11.65,31.21a38.25,38.25,0,0,0,27.47,11.24q13.29,0,30-7.08t45.78-32.88V437.7q-59.94,14.16-87.4,34.54T372,520.1Z" fill="none"/><path d="M269.6,278.8a78.63,78.63,0,0,0-28.4-24.4q-17.22-8.79-40.4-8.8-28,0-48.8,17.6t-32,45.6V411.2q11.19,28.8,32,46.4t48.8,17.6q23.19,0,40.4-9.2a82.21,82.21,0,0,0,28.4-24.8,111.59,111.59,0,0,0,16.8-36.4,182,182,0,0,0,0-89.6A111.78,111.78,0,0,0,269.6,278.8Z" fill="none"/><path d="M588.35,556.72A68,68,0,0,1,577.94,565,22.83,22.83,0,0,1,565,569.2q-19.15,0-19.14-32.46V411.07q0-59.94-26.63-86.57t-87.4-26.63a168.29,168.29,0,0,0-39.12,4.58,118.39,118.39,0,0,0-33.7,13.32,87.69,87.69,0,0,0-7.86,5.3,160.58,160.58,0,0,1,1.3,72.4c.92.08,1.85.12,2.81.12a27.25,27.25,0,0,0,20-8.33q8.31-8.31,8.32-20.8A32.77,32.77,0,0,1,388.18,347a41.51,41.51,0,0,1,11.65-12.49,52.78,52.78,0,0,1,15.4-7.49A55.18,55.18,0,0,1,431,324.5q17.47,0,28.72,5a35.53,35.53,0,0,1,17.06,15.4q5.81,10.41,7.9,27.05a329.53,329.53,0,0,1,2.09,39.95A542.74,542.74,0,0,0,419,427.29q-32,9.58-56.18,23.31t-38.7,33.29q-14.58,19.58-14.57,46.2,0,33.3,22.06,51.6T384.43,600a115.32,115.32,0,0,0,49.11-11.24q24.12-11.24,54.93-38.7,3.31,22.47,17.9,35.37t38.7,12.9a68.8,68.8,0,0,0,28.71-6.65A83,83,0,0,0,600,572.53ZM486.81,522.59Q457.67,548.41,441,555.47t-30,7.08a38.25,38.25,0,0,1-27.47-11.24Q371.93,540.08,372,520.1q0-27.47,27.46-47.86t87.4-34.54Z" fill="#fff"/><path d="M326.17,364.46A45.31,45.31,0,0,1,335.33,337a76.19,76.19,0,0,1,15.86-15.92,146.65,146.65,0,0,0-6-18.27,142,142,0,0,0-73.6-77.6,127.79,127.79,0,0,0-54-11.6q-30.42,0-54.8,12.4A133.21,133.21,0,0,0,120,260.8V0L0,20V36.8q20,0,32.4,3.2A31.63,31.63,0,0,1,51.6,53.6Q58.38,64,60.8,82t2.4,48.4V507.2H80l35.2-53.6a129,129,0,0,0,44,39.2q26.4,14.4,58.4,14.4a127.79,127.79,0,0,0,54-11.6,140.08,140.08,0,0,0,44-31.6,148.8,148.8,0,0,0,29.6-46.8,146.93,146.93,0,0,0,7.29-23.73,27.69,27.69,0,0,1-18-8.21Q326.16,377,326.17,364.46ZM286.4,404.8a111.59,111.59,0,0,1-16.8,36.4A82.21,82.21,0,0,1,241.2,466q-17.22,9.21-40.4,9.2-28,0-48.8-17.6t-32-46.4V308.8q11.19-28,32-45.6t48.8-17.6q23.19,0,40.4,8.8a78.63,78.63,0,0,1,28.4,24.4,111.78,111.78,0,0,1,16.8,36.4,182,182,0,0,1,0,89.6Z" fill="#fff"/><path d="M351.19,321.07A76.19,76.19,0,0,0,335.33,337a45.31,45.31,0,0,0-9.16,27.47q0,12.48,8.32,20.8a27.69,27.69,0,0,0,18,8.21,160.58,160.58,0,0,0-1.3-72.4Z"/></svg>